<?xml version="1.0" standalone="no"?><svg xmlns="http://www.w3.org/2000/svg" viewBox="0 0 1440 320"><path fill="#88274c" fill-opacity="1" d="M0,32L26.7,32C53.3,32,107,32,160,74.7C213.3,117,267,203,320,213.3C373.3,224,427,160,480,117.3C533.3,75,587,53,640,37.3C693.3,21,747,11,800,37.3C853.3,64,907,128,960,133.3C1013.3,139,1067,85,1120,80C1173.3,75,1227,117,1280,122.7C1333.3,128,1387,96,1413,80L1440,64L1440,320L1413.3,320C1386.7,320,1333,320,1280,320C1226.7,320,1173,320,1120,320C1066.7,320,1013,320,960,320C906.7,320,853,320,800,320C746.7,320,693,320,640,320C586.7,320,533,320,480,320C426.7,320,373,320,320,320C266.7,320,213,320,160,320C106.7,320,53,320,27,320L0,320Z"></path></svg>