<?xml version="1.0" standalone="no"?><svg xmlns="http://www.w3.org/2000/svg" viewBox="0 0 1440 320"><path fill="#4b8694" fill-opacity="1" d="M0,192L30,165.3C60,139,120,85,180,74.7C240,64,300,96,360,112C420,128,480,128,540,149.3C600,171,660,213,720,197.3C780,181,840,107,900,90.7C960,75,1020,117,1080,144C1140,171,1200,181,1260,170.7C1320,160,1380,128,1410,112L1440,96L1440,320L1410,320C1380,320,1320,320,1260,320C1200,320,1140,320,1080,320C1020,320,960,320,900,320C840,320,780,320,720,320C660,320,600,320,540,320C480,320,420,320,360,320C300,320,240,320,180,320C120,320,60,320,30,320L0,320Z"></path></svg>