<?xml version="1.0" standalone="no"?><svg xmlns="http://www.w3.org/2000/svg" viewBox="0 0 1440 320"><path fill="#0099ff" fill-opacity="1" d="M0,256L26.7,229.3C53.3,203,107,149,160,106.7C213.3,64,267,32,320,37.3C373.3,43,427,85,480,122.7C533.3,160,587,192,640,181.3C693.3,171,747,117,800,117.3C853.3,117,907,171,960,176C1013.3,181,1067,139,1120,112C1173.3,85,1227,75,1280,69.3C1333.3,64,1387,64,1413,64L1440,64L1440,320L1413.3,320C1386.7,320,1333,320,1280,320C1226.7,320,1173,320,1120,320C1066.7,320,1013,320,960,320C906.7,320,853,320,800,320C746.7,320,693,320,640,320C586.7,320,533,320,480,320C426.7,320,373,320,320,320C266.7,320,213,320,160,320C106.7,320,53,320,27,320L0,320Z"></path></svg>